<?xml version="1.0" standalone="no"?>
<!DOCTYPE svg PUBLIC "-//W3C//DTD SVG 20010904//EN"
 "http://www.w3.org/TR/2001/REC-SVG-20010904/DTD/svg10.dtd">
<svg version="1.0" xmlns="http://www.w3.org/2000/svg"
 width="628.000000pt" height="600.000000pt" viewBox="0 0 628.000000 600.000000"
 preserveAspectRatio="xMidYMid meet">

<g transform="translate(0.000000,600.000000) scale(0.100000,-0.100000)"
fill="#000000" stroke="none">
<path d="M0 3000 l0 -3000 1523 2 c837 1 1497 3 1467 5 -771 44 -1296 183
-1430 377 -41 61 -46 88 -25 157 10 33 16 61 13 64 -3 3 -115 27 -249 54 -459
93 -665 159 -818 264 l-44 30 74 22 c91 26 251 85 263 95 5 5 0 21 -12 37 -45
64 -142 285 -142 324 0 4 33 -7 72 -26 187 -85 431 -145 888 -215 146 -23 303
-50 350 -61 100 -23 188 -61 197 -85 3 -9 -4 -71 -17 -136 -12 -65 -21 -121
-19 -123 7 -6 219 -34 376 -50 83 -8 269 -20 412 -26 372 -17 840 6 1196 57
61 9 112 17 114 19 2 2 -7 58 -19 123 -13 65 -20 127 -17 136 18 48 184 91
582 151 427 65 709 136 878 221 26 14 47 20 47 15 0 -38 -99 -263 -142 -324
-12 -16 -17 -32 -12 -37 12 -10 172 -69 263 -95 l74 -22 -44 -30 c-153 -105
-350 -169 -813 -263 -137 -28 -252 -52 -254 -55 -3 -3 3 -31 13 -64 21 -69 16
-96 -25 -157 -131 -189 -638 -328 -1360 -373 -69 -5 553 -9 1398 -10 l1522 -1
0 3000 0 3000 -3140 0 -3140 0 0 -3000z m1661 2801 c32 -39 24 -57 -12 -27
-79 67 -224 -6 -259 -130 -21 -72 -9 -180 29 -259 34 -74 35 -93 2 -47 -87
123 -92 298 -11 410 48 67 83 84 164 80 57 -3 71 -8 87 -27z m3146 9 c69 -42
123 -152 123 -251 0 -60 -32 -163 -66 -212 -14 -21 -28 -37 -30 -34 -2 2 10
35 27 72 38 79 50 187 29 259 -35 124 -180 197 -259 130 -31 -26 -40 -19 -20
17 14 27 44 38 109 38 38 1 65 -5 87 -19z m-1614 -262 c21 -11 20 -12 -16 -23
-21 -6 -54 -9 -73 -7 -34 4 -34 5 -18 23 20 22 74 25 107 7z m-364 -12 c10
-12 6 -15 -21 -21 -18 -4 -56 -18 -84 -31 -55 -26 -317 -195 -328 -212 -3 -5
-41 -24 -85 -42 -79 -32 -80 -32 -117 -14 -37 18 -37 18 -13 28 13 5 72 31
132 57 59 26 107 43 107 38 0 -15 57 18 176 102 150 106 205 129 233 95z m707
-1 c20 -8 86 -50 147 -94 120 -84 177 -117 177 -102 0 5 48 -12 108 -38 59
-26 118 -52 131 -57 24 -10 24 -10 -13 -28 -37 -18 -38 -18 -117 14 -44 18
-82 37 -85 42 -11 17 -273 186 -328 212 -28 13 -66 27 -84 31 -27 6 -31 9 -21
21 15 18 41 18 85 -1z m-1745 -94 l22 -18 -47 1 c-59 1 -76 -18 -76 -87 0 -46
4 -53 42 -89 48 -44 110 -66 216 -75 39 -3 72 -10 72 -16 0 -16 -142 0 -207
23 -129 45 -195 179 -124 251 34 33 69 37 102 10z m2800 -10 c71 -72 5 -206
-124 -251 -65 -23 -207 -39 -207 -23 0 6 33 13 73 16 105 9 167 31 215 75 38
36 42 43 42 89 0 69 -17 88 -76 87 l-47 -1 22 18 c33 27 68 23 102 -10z
m-1314 -108 c2 -6 -10 -27 -26 -46 -31 -35 -39 -57 -22 -57 6 0 17 -12 26 -28
9 -15 34 -37 55 -49 23 -14 45 -38 59 -65 23 -46 15 -59 -21 -34 -33 23 -41
20 -60 -24 -18 -43 -68 -80 -108 -80 -20 0 -29 -7 -38 -34 -11 -29 -10 -41 4
-75 20 -51 66 -91 105 -91 16 0 46 9 66 20 21 11 47 20 59 20 12 0 33 12 47
26 26 26 26 26 74 10 87 -30 213 -41 313 -28 49 7 102 17 117 23 l28 11 -60
29 c-34 16 -93 59 -135 98 l-75 70 520 1 520 0 13 -53 c16 -68 18 -3247 2
-3345 -28 -173 -127 -275 -315 -328 -50 -14 -133 -18 -515 -24 -420 -6 -460
-8 -516 -27 -114 -38 -198 -118 -235 -225 -7 -21 -16 -38 -19 -38 -3 0 -12 17
-19 38 -37 107 -121 187 -235 225 -56 19 -96 21 -516 27 -382 6 -465 10 -515
24 -188 53 -287 155 -315 328 -16 98 -14 3277 2 3345 l13 53 458 0 459 0 -36
-41 c-59 -65 -151 -219 -131 -219 3 0 23 9 43 19 58 30 105 39 281 56 90 8
167 18 172 21 12 7 54 -21 111 -73 51 -47 80 -53 128 -28 32 17 70 61 70 82 0
8 -13 25 -29 39 -38 31 -65 103 -58 149 5 33 5 34 -24 28 -28 -5 -29 -4 -29
35 0 22 5 53 11 69 12 32 67 93 85 93 6 0 19 11 28 25 29 44 75 66 130 63 27
-2 51 -8 53 -15z m303 -311 c0 -35 -16 -58 -49 -71 -24 -11 -35 -10 -65 4 -20
10 -36 23 -36 30 0 7 -3 20 -6 29 -4 11 -1 16 10 16 27 0 93 38 100 57 6 15
10 13 26 -12 11 -17 20 -40 20 -53z m-2562 13 c-2 -2 -14 -1 -27 2 l-23 6 23
13 c20 11 25 10 27 -2 2 -9 2 -17 0 -19z m1776 24 c33 -15 37 -39 18 -93 -13
-36 -23 -47 -45 -52 -50 -11 -105 43 -93 92 14 55 65 78 120 53z m2491 -1 c18
-8 22 -14 13 -20 -21 -13 -35 -9 -41 12 -6 23 -6 24 28 8z m-4634 -757 c31
-31 39 -83 19 -120 -25 -47 -124 -27 -160 31 -26 43 -25 64 5 93 36 37 97 35
136 -4z m5114 4 c30 -29 31 -50 5 -93 -25 -40 -77 -64 -120 -56 -36 8 -50 29
-50 79 0 82 108 128 165 70z m-4600 -100 c-25 -101 -30 -260 -11 -335 27 -103
90 -147 140 -96 15 14 26 34 26 45 0 11 5 23 10 26 20 12 11 -70 -10 -93 -59
-63 -153 -27 -181 69 -26 90 -14 332 21 423 17 47 20 24 5 -39z m3971 -15 c21
-79 24 -303 5 -369 -28 -96 -122 -132 -181 -69 -21 23 -30 105 -10 93 6 -3 10
-15 10 -26 0 -11 11 -31 26 -45 29 -30 65 -27 101 9 29 29 53 124 53 213 0 66
-21 217 -36 260 -5 14 -4 16 4 9 6 -6 19 -39 28 -75z m-3776 -75 c12 -53 -1
-63 -34 -25 -31 38 -35 102 -9 140 l18 25 8 -50 c4 -27 12 -68 17 -90z m3615
50 c0 -42 -40 -114 -55 -98 -5 4 -2 37 6 73 7 36 14 76 14 90 l0 24 17 -24
c10 -14 18 -43 18 -65z m-3911 33 c34 -48 7 -108 -47 -108 -38 0 -50 7 -66 37
-15 30 -14 36 10 67 27 34 81 36 103 4z m4248 5 c22 -20 23 -70 1 -95 -25 -28
-77 -24 -102 8 -12 15 -21 32 -21 39 0 7 9 24 21 39 24 31 72 35 101 9z
m-3862 -147 c0 -2 -11 -6 -25 -8 -13 -3 -22 -1 -19 3 5 9 44 13 44 5z m3424
-5 c4 -5 -3 -7 -14 -4 -23 6 -26 13 -6 13 8 0 17 -4 20 -9z m-4070 -719 c8
-29 13 -52 11 -52 -3 0 -16 23 -30 51 -30 59 -49 151 -39 188 5 21 10 12 24
-55 10 -44 25 -104 34 -132z m4724 136 c-4 -54 -12 -86 -32 -123 -15 -27 -24
-39 -21 -25 3 14 16 69 28 122 12 54 24 98 26 98 2 0 1 -33 -1 -72z m-4333
-398 c26 -29 7 -70 -33 -70 -49 0 -69 42 -36 74 21 22 47 20 69 -4z m3953 8
c7 -7 12 -21 12 -33 0 -12 -5 -26 -12 -33 -7 -7 -21 -12 -33 -12 -12 0 -26 5
-33 12 -7 7 -12 21 -12 33 0 12 5 26 12 33 7 7 21 12 33 12 12 0 26 -5 33 -12z
m-4464 -274 c19 -18 21 -65 4 -82 -31 -31 -98 -3 -98 40 0 49 61 76 94 42z
m4980 3 c21 -16 24 -60 6 -82 -16 -20 -59 -19 -82 2 -51 46 20 121 76 80z
m-4246 -629 c27 -27 7 -78 -29 -78 -21 0 -49 26 -49 45 0 35 53 58 78 33z
m3506 -4 c9 -8 16 -22 16 -29 0 -7 -7 -21 -16 -29 -30 -30 -74 -13 -74 29 0
42 44 59 74 29z m-3929 -184 c15 -17 16 -24 7 -45 -15 -32 -37 -41 -68 -27
-17 8 -24 20 -24 40 0 52 50 71 85 32z m4369 -12 c17 -50 -42 -89 -78 -52 -19
19 -21 55 -4 72 7 7 26 12 43 10 22 -2 32 -10 39 -30z m-4688 -262 c3 -109
118 -219 251 -241 80 -13 199 32 276 103 15 14 27 21 27 15 0 -19 -82 -84
-140 -111 -75 -36 -190 -37 -268 -3 -90 40 -162 145 -162 236 0 25 6 46 14 45
1 0 2 -20 2 -44z m4944 0 c0 -92 -72 -197 -162 -237 -78 -34 -193 -33 -268 3
-58 27 -140 92 -140 111 0 6 12 -1 28 -15 76 -71 195 -116 275 -103 134 22
248 131 251 241 1 49 16 49 16 0z m-4700 -6 c0 -34 -29 -82 -48 -78 -23 4 -28
61 -7 82 24 23 55 21 55 -4z m4496 -5 c17 -25 13 -75 -6 -75 -13 0 -37 39 -45
73 -6 23 -4 27 14 27 11 0 28 -11 37 -25z"/>
<path d="M1571 4873 c0 -78 3 -100 9 -79 5 16 36 64 70 107 l61 79 -71 0 -70
0 1 -107z"/>
<path d="M4630 4901 c34 -43 65 -91 70 -107 6 -21 9 1 9 79 l1 107 -70 0 -71
0 61 -79z"/>
<path d="M3313 3967 c-48 -51 -88 -107 -75 -107 11 0 61 37 80 60 16 18 45 81
39 86 -2 2 -21 -15 -44 -39z"/>
<path d="M3396 3972 c-27 -60 -89 -119 -147 -139 -27 -10 -49 -23 -49 -30 0
-19 18 -16 75 11 75 34 150 129 143 179 -2 18 -7 13 -22 -21z"/>
<path d="M3780 3626 c-80 -23 -152 -66 -308 -184 -84 -65 -163 -123 -175 -131
-21 -13 -33 -7 -177 89 -178 118 -234 146 -330 162 -144 25 -243 -16 -515
-209 -93 -67 -291 -206 -440 -310 l-270 -188 -3 -575 c-1 -366 1 -600 8 -644
26 -168 113 -260 296 -312 50 -14 132 -18 519 -24 329 -5 471 -10 500 -19 103
-33 189 -99 230 -175 11 -20 22 -36 25 -36 3 0 14 16 25 36 41 76 127 142 230
175 29 9 171 14 500 19 387 6 469 10 519 24 183 52 272 146 296 313 5 39 10
360 10 764 l0 696 -176 154 c-313 273 -387 327 -511 368 -71 24 -181 27 -253
7z m-317 -1868 c-30 -55 -105 -123 -168 -154 -54 -26 -70 -29 -155 -29 -84 0
-102 3 -158 29 -67 31 -182 140 -165 157 13 13 242 26 471 28 l193 1 -18 -32z"/>
<path d="M1037 1235 c-13 -9 -17 -20 -12 -35 7 -23 -48 -185 -69 -205 -6 -5
-12 -31 -13 -57 -2 -37 1 -48 13 -48 15 0 18 6 28 52 5 22 13 27 48 33 24 3
60 13 81 22 75 32 73 137 -4 214 -43 43 -46 44 -72 24z m69 -96 c8 -16 14 -44
14 -64 0 -29 -6 -39 -32 -55 -36 -22 -78 -26 -78 -9 0 6 14 39 31 72 18 36 29
70 26 84 -3 19 -2 21 10 11 8 -6 21 -24 29 -39z"/>
<path d="M5221 1163 c-16 -32 -32 -132 -30 -188 1 -30 0 -58 -4 -62 -13 -13
-7 -35 8 -29 9 3 19 -3 25 -14 14 -27 43 -25 77 4 20 18 25 28 17 36 -8 8 -14
7 -24 -5 -16 -19 -34 -19 -50 0 -10 13 -9 29 9 88 30 101 28 187 -5 187 -7 0
-17 -8 -23 -17z m22 -110 c-3 -21 -10 -45 -15 -53 -6 -10 -8 -4 -4 19 3 18 6
42 6 52 0 11 4 19 9 19 6 0 7 -17 4 -37z"/>
<path d="M4870 1073 c-79 -79 -76 -121 12 -180 42 -28 64 -73 36 -73 -22 -1
-82 -56 -74 -68 14 -23 46 -12 86 28 22 22 44 40 49 40 5 0 14 7 21 15 11 14
14 13 24 -7 16 -31 43 -34 77 -9 15 12 32 21 37 21 17 0 34 28 22 35 -5 3 -10
19 -10 34 0 34 -22 55 -49 48 -11 -3 -22 0 -24 6 -2 6 -24 -17 -50 -52 -44
-62 -47 -63 -56 -40 -5 13 -30 40 -55 59 -45 33 -65 68 -52 89 4 6 13 8 20 5
17 -6 68 53 64 74 -6 31 -30 23 -78 -25z m246 -167 c10 -26 -29 -82 -48 -70
-13 8 -9 33 8 59 18 28 32 32 40 11z"/>
<path d="M1690 1030 c-58 -58 14 -141 158 -184 39 -11 52 -12 49 -3 -3 7 -15
51 -28 100 -23 85 -25 88 -59 97 -56 16 -98 12 -120 -10z"/>
<path d="M4441 1034 c-70 -19 -71 -20 -61 -52 5 -15 14 -52 20 -84 l11 -56 60
20 c74 25 139 82 139 121 0 63 -59 81 -169 51z"/>
<path d="M1211 983 c-49 -29 -67 -45 -73 -68 -13 -49 -4 -58 39 -39 21 9 43
18 50 21 6 2 14 -5 18 -16 9 -29 42 -26 94 8 61 41 84 23 41 -32 -11 -14 -20
-31 -20 -38 0 -7 -23 -34 -50 -59 -36 -33 -49 -52 -44 -63 9 -24 55 -21 95 6
27 18 35 30 37 60 3 31 9 40 43 59 21 12 39 28 39 35 0 9 -13 5 -41 -13 -22
-14 -43 -23 -45 -21 -3 2 7 18 21 35 19 23 25 40 23 64 -4 45 -23 45 -86 3
-59 -38 -72 -38 -64 0 6 32 -13 33 -64 3 -56 -33 -33 -6 31 37 96 63 60 78
-44 18z m139 -257 c-13 -17 -48 -27 -55 -16 -3 5 9 20 27 34 27 21 34 23 36
10 2 -8 -1 -21 -8 -28z"/>
<path d="M2508 622 c-27 -15 -48 -31 -48 -36 0 -24 -96 -194 -114 -202 -16 -7
-21 -19 -22 -49 0 -22 -8 -57 -17 -79 -21 -48 -21 -66 -2 -66 9 0 28 28 46 69
29 65 33 70 74 80 24 6 56 11 71 11 27 0 27 0 20 -57 -4 -31 -9 -67 -12 -80
-5 -17 -2 -23 9 -23 15 0 42 73 54 148 3 17 8 32 12 32 3 0 6 43 6 96 0 79 -3
98 -18 108 -13 10 -15 21 -11 45 4 17 5 31 3 31 -2 0 -25 -13 -51 -28z m28
-156 c-3 -12 -6 -33 -6 -48 0 -27 -2 -28 -55 -28 -30 0 -55 2 -55 5 0 6 60
107 73 124 9 11 15 9 30 -10 11 -13 16 -31 13 -43z"/>
<path d="M3904 595 c-8 -20 -20 -59 -26 -88 -8 -34 -24 -66 -47 -93 -59 -67
-115 -134 -122 -146 -11 -17 -29 1 -29 28 0 43 -28 40 -76 -7 -24 -24 -44 -40
-44 -36 0 3 27 38 60 78 57 68 65 89 35 89 -8 0 -57 -44 -110 -97 l-95 -98 0
37 c0 55 21 142 36 151 14 8 16 104 2 113 -4 3 -16 -8 -25 -25 -19 -32 -38
-41 -89 -41 -20 0 -34 -6 -38 -16 -10 -25 2 -34 45 -34 21 0 39 -4 39 -8 0
-22 -124 -192 -133 -182 -3 3 1 34 9 70 25 117 -1 120 -107 14 -49 -48 -83
-75 -92 -71 -8 3 -17 24 -21 46 -8 52 -28 53 -78 6 l-37 -36 -26 40 c-26 42
-35 44 -82 13 -26 -16 -26 -17 -14 26 10 33 6 62 -9 62 -4 0 -31 -19 -60 -42
l-53 -42 7 37 c6 33 5 37 -14 37 -24 0 -120 -85 -120 -106 0 -20 10 -17 38 9
l25 22 -7 -27 c-3 -16 -9 -39 -12 -53 -10 -39 10 -31 78 32 68 62 81 59 53
-14 -26 -68 -7 -76 50 -19 26 25 50 46 54 46 4 0 20 -14 36 -30 34 -35 55 -38
80 -10 24 27 29 26 48 -15 28 -59 65 -48 156 48 42 43 51 49 56 34 10 -24 -3
-67 -18 -64 -15 3 -21 -62 -8 -82 8 -12 16 -10 48 14 21 16 60 52 86 80 l49
50 -6 -46 c-11 -93 14 -112 73 -56 18 17 31 26 27 19 -8 -13 10 -42 26 -42 5
0 30 20 57 45 l48 45 11 -25 c14 -31 41 -32 76 -4 l27 21 -6 -25 c-4 -14 -2
-28 5 -32 25 -15 56 6 89 60 l34 56 24 -30 c28 -36 62 -40 88 -11 20 22 14 35
-18 35 -13 0 -27 11 -36 27 -14 25 -14 37 7 135 12 59 22 120 22 136 0 39 -28
35 -46 -8z m-44 -217 c0 -21 -63 -124 -67 -111 -4 12 53 123 63 123 2 0 4 -6
4 -12z"/>
<path d="M3062 467 c-27 -29 -29 -57 -3 -57 20 0 51 24 51 40 0 5 3 15 6 24
10 25 -29 20 -54 -7z"/>
</g>
</svg>
